<svg width="800" height="800" viewBox="0 0 32 32" style="fill-rule:evenodd;clip-rule:evenodd;stroke-linejoin:round;stroke-miterlimit:2" xml:space="preserve" xmlns="http://www.w3.org/2000/svg"><path d="m12.965 5.462-4.979.008a5.5 5.5 0 0 0-5.49 5.5V24a5.496 5.496 0 0 0 5.5 5.5h13.003a5.5 5.5 0 0 0 5.5-5.5v-5.004a1.5 1.5 0 0 0-3 0V24a2.5 2.5 0 0 1-2.5 2.5H7.996a2.5 2.5 0 0 1-2.5-2.5V10.97a2.5 2.5 0 0 1 2.496-2.5l4.979-.008a1.501 1.501 0 0 0-.006-3Z"/><path d="m20.046 6.411-6.845 6.846a.992.992 0 0 0-.271.501l-1.081 5.152a1 1 0 0 0 1.175 1.186l5.194-1.038c.193-.039.371-.134.511-.274l6.845-6.845-5.528-5.528Zm1.415-1.414 5.527 5.528L28.1 9.414a3.909 3.909 0 0 0 0-5.527l-.001-.001a3.909 3.909 0 0 0-5.527 0l-1.111 1.111Z"/></svg>